<svg width="31" height="31" viewBox="0 0 31 31" fill="none" xmlns="http://www.w3.org/2000/svg">
<path d="M15.7873 3.87953C15.6787 3.87651 15.5696 3.875 15.4603 3.875C9.05641 3.875 3.86506 9.07969 3.86506 15.5C3.86506 21.9203 9.05641 27.125 15.4603 27.125C21.8641 27.125 27.0554 21.9203 27.0554 15.5C27.0554 15.3903 27.0539 15.281 27.051 15.1721L30.4648 11.7494C30.7624 12.9504 30.9205 14.2067 30.9205 15.5C30.9205 24.0605 23.9988 31 15.4603 31C6.92179 31 0 24.0605 0 15.5C0 6.93958 6.92179 0 15.4603 0C16.7502 0 18.0033 0.158396 19.2012 0.456845L15.7873 3.87953Z" fill="white"/>
<path d="M7.7301 15.4999C7.7301 11.8887 10.1936 8.85441 13.5277 7.99408V12.1433C12.3724 12.8133 11.5952 14.0656 11.5952 15.4999C11.5952 17.64 13.3256 19.3749 15.4602 19.3749C16.8908 19.3749 18.1399 18.5957 18.8082 17.4374H22.9469C22.0886 20.7801 19.0622 23.25 15.4602 23.25C11.191 23.25 7.7301 19.7801 7.7301 15.4999Z" fill="white"/>
<path d="M27.0554 3.875L25.1229 0L19.3253 5.8125V8.88497L15.06 13.1612L17.793 15.9013L22.0583 11.625H25.1229L30.9205 5.8125L27.0554 3.875Z" fill="white"/>
</svg>
