<svg width="31" height="31" viewBox="0 0 31 31" fill="none" xmlns="http://www.w3.org/2000/svg">
<path fill-rule="evenodd" clip-rule="evenodd" d="M11.5755 23.8554C7.77508 20.9427 2.58331 16.1311 2.58331 11.5818C2.58331 3.98172 9.68769 1.14424 15.5 7.01519C21.3122 1.14424 28.4166 3.98172 28.4166 11.5817C28.4166 16.1312 23.2249 20.9427 19.4245 23.8554C17.704 25.1741 16.8437 25.8333 15.5 25.8333C14.1563 25.8333 13.296 25.1741 11.5755 23.8554ZM21.3125 8.07292C21.8475 8.07292 22.2812 8.50665 22.2812 9.04167V10.6563H23.8958C24.4308 10.6563 24.8646 11.09 24.8646 11.625C24.8646 12.16 24.4308 12.5938 23.8958 12.5938H22.2812V14.2083C22.2812 14.7433 21.8475 15.1771 21.3125 15.1771C20.7775 15.1771 20.3437 14.7433 20.3437 14.2083V12.5938H18.7291C18.1941 12.5938 17.7604 12.16 17.7604 11.625C17.7604 11.09 18.1941 10.6563 18.7291 10.6563H20.3437V9.04167C20.3437 8.50665 20.7775 8.07292 21.3125 8.07292Z" fill="white"/>
</svg>
