<svg width="31" height="31" viewBox="0 0 31 31" fill="none" xmlns="http://www.w3.org/2000/svg">
<path d="M11.625 3.875V6.45833M15.5 3.875V6.45833M19.375 3.875V6.45833M16.7916 11.625H11.625M19.375 16.7917H11.625M10.5916 27.125H20.4083C21.8551 27.125 22.5786 27.125 23.1311 26.8434C23.6172 26.5958 24.0125 26.2006 24.2601 25.7145C24.5416 25.1619 24.5416 24.4385 24.5416 22.9917V9.3C24.5416 7.8532 24.5416 7.12979 24.2601 6.57719C24.0125 6.0911 23.6172 5.6959 23.1311 5.44824C22.5786 5.16667 21.8551 5.16667 20.4083 5.16667H10.5916C9.14485 5.16667 8.42144 5.16667 7.86884 5.44824C7.38275 5.6959 6.98755 6.0911 6.73988 6.57719C6.45831 7.12979 6.45831 7.85319 6.45831 9.3V22.9917C6.45831 24.4385 6.45831 25.1619 6.73988 25.7145C6.98755 26.2006 7.38275 26.5958 7.86884 26.8434C8.42144 27.125 9.14484 27.125 10.5916 27.125Z" stroke="white" stroke-width="2" stroke-linecap="round" stroke-linejoin="round"/>
</svg>
