<svg width="316" height="51" viewBox="0 0 316 51" fill="none" xmlns="http://www.w3.org/2000/svg">
<path fill-rule="evenodd" clip-rule="evenodd" d="M15.0526 3.56641C12.5761 3.56641 10.2011 4.55019 8.44991 6.30134L0 14.7512V18.619C0 21.3516 1.17378 23.81 3.04465 25.5176C1.17378 27.2252 0 29.6836 0 32.4162V36.284L8.44991 44.7339C10.2011 46.4851 12.5761 47.4688 15.0526 47.4688C17.7852 47.4688 20.2436 46.2951 21.9512 44.4242C23.6588 46.2951 26.1172 47.4688 28.8498 47.4688C31.3264 47.4688 33.7014 46.4851 35.4525 44.7339L43.9024 36.284V32.4162C43.9024 29.6836 42.7287 27.2252 40.8578 25.5176C42.7287 23.81 43.9024 21.3516 43.9024 18.619V14.7512L35.4525 6.30134C33.7014 4.55019 31.3264 3.56641 28.8498 3.56641C26.1172 3.56641 23.6588 4.74018 21.9512 6.61105C20.2436 4.74018 17.7852 3.56641 15.0526 3.56641ZM28.2719 25.5176C28.1666 25.4216 28.0633 25.3229 27.9621 25.2217L21.9512 19.2108L15.9403 25.2217C15.8391 25.3229 15.7358 25.4216 15.6306 25.5176C15.7358 25.6136 15.8391 25.7123 15.9403 25.8135L21.9512 31.8244L27.9621 25.8135C28.0633 25.7123 28.1666 25.6136 28.2719 25.5176ZM24.3902 36.284V38.1312C24.3902 40.5941 26.3869 42.5908 28.8498 42.5908C30.0326 42.5908 31.1669 42.121 32.0032 41.2846L39.0244 34.2634V32.4162C39.0244 29.9533 37.0278 27.9566 34.5648 27.9566C33.3821 27.9566 32.2478 28.4265 31.4114 29.2628L24.3902 36.284ZM19.5122 36.284L12.491 29.2628C11.6547 28.4265 10.5204 27.9566 9.33763 27.9566C6.87467 27.9566 4.87804 29.9533 4.87804 32.4162V34.2634L11.8992 41.2846C12.7355 42.121 13.8699 42.5908 15.0526 42.5908C17.5155 42.5908 19.5122 40.5941 19.5122 38.1312V36.284ZM19.5122 12.904V14.7512L12.491 21.7724C11.6547 22.6087 10.5204 23.0786 9.33763 23.0786C6.87467 23.0786 4.87804 21.0819 4.87804 18.619V16.7718L11.8992 9.75063C12.7355 8.9143 13.8699 8.44446 15.0526 8.44446C17.5155 8.44446 19.5122 10.4411 19.5122 12.904ZM31.4114 21.7724L24.3902 14.7512V12.904C24.3902 10.4411 26.3869 8.44446 28.8498 8.44446C30.0326 8.44446 31.1669 8.9143 32.0032 9.75063L39.0244 16.7718V18.619C39.0244 21.0819 37.0278 23.0786 34.5648 23.0786C33.3821 23.0786 32.2478 22.6087 31.4114 21.7724Z" fill="#FF630B"/>
<path d="M70.6807 41V10.1573H77.2016V22.8829H90.4393V10.1573H96.9451V41H90.4393V28.2593H77.2016V41H70.6807ZM112.743 41.4518C110.364 41.4518 108.315 40.9699 106.599 40.006C104.892 39.0322 103.577 37.6567 102.653 35.8796C101.729 34.0925 101.267 31.9791 101.267 29.5394C101.267 27.16 101.729 25.0716 102.653 23.2745C103.577 21.4773 104.877 20.0768 106.553 19.0728C108.24 18.0688 110.218 17.5668 112.487 17.5668C114.013 17.5668 115.434 17.8128 116.749 18.3047C118.074 18.7866 119.229 19.5145 120.213 20.4884C121.207 21.4623 121.98 22.6872 122.532 24.163C123.084 25.6289 123.36 27.3457 123.36 29.3135V31.0755H103.828V27.0997H117.321C117.321 26.176 117.12 25.3578 116.719 24.6449C116.317 23.9321 115.76 23.3749 115.047 22.9733C114.344 22.5617 113.526 22.3558 112.592 22.3558C111.618 22.3558 110.755 22.5817 110.002 23.0335C109.259 23.4753 108.677 24.0727 108.255 24.8257C107.833 25.5686 107.618 26.3969 107.608 27.3105V31.0906C107.608 32.2351 107.818 33.2241 108.24 34.0574C108.672 34.8907 109.279 35.5333 110.062 35.9851C110.845 36.4368 111.774 36.6627 112.848 36.6627C113.561 36.6627 114.214 36.5623 114.806 36.3616C115.399 36.1608 115.906 35.8596 116.327 35.458C116.749 35.0564 117.07 34.5644 117.291 33.9821L123.225 34.3736C122.923 35.7993 122.306 37.0443 121.372 38.1085C120.449 39.1627 119.254 39.986 117.788 40.5783C116.332 41.1606 114.651 41.4518 112.743 41.4518ZM134.143 41.4367C132.667 41.4367 131.352 41.1807 130.197 40.6687C129.043 40.1466 128.129 39.3786 127.456 38.3645C126.794 37.3404 126.463 36.0654 126.463 34.5393C126.463 33.2542 126.698 32.1749 127.17 31.3014C127.642 30.4279 128.285 29.7252 129.098 29.193C129.911 28.6609 130.835 28.2593 131.869 27.9882C132.913 27.7172 134.008 27.5264 135.152 27.416C136.497 27.2754 137.582 27.1449 138.405 27.0244C139.228 26.8939 139.826 26.7031 140.197 26.4521C140.569 26.2011 140.754 25.8297 140.754 25.3377V25.2473C140.754 24.2936 140.453 23.5556 139.851 23.0335C139.258 22.5115 138.415 22.2504 137.321 22.2504C136.166 22.2504 135.247 22.5064 134.565 23.0185C133.882 23.5205 133.43 24.153 133.209 24.916L127.276 24.4341C127.577 23.0285 128.169 21.8137 129.053 20.7896C129.936 19.7555 131.076 18.9623 132.471 18.4101C133.877 17.8479 135.503 17.5668 137.351 17.5668C138.636 17.5668 139.866 17.7174 141.041 18.0186C142.225 18.3198 143.274 18.7866 144.188 19.4192C145.112 20.0517 145.84 20.8649 146.372 21.8589C146.904 22.8428 147.17 24.0225 147.17 25.3979V41H141.086V37.7922H140.905C140.534 38.5151 140.037 39.1527 139.414 39.7048C138.792 40.247 138.044 40.6737 137.17 40.9849C136.297 41.2861 135.288 41.4367 134.143 41.4367ZM135.98 37.0091C136.924 37.0091 137.757 36.8234 138.48 36.4519C139.203 36.0704 139.77 35.5584 140.182 34.9158C140.594 34.2732 140.8 33.5453 140.8 32.7321V30.2774C140.599 30.4079 140.323 30.5283 139.971 30.6388C139.63 30.7392 139.243 30.8346 138.812 30.9249C138.38 31.0052 137.948 31.0805 137.517 31.1508C137.085 31.2111 136.693 31.2663 136.342 31.3165C135.589 31.4269 134.931 31.6026 134.369 31.8436C133.807 32.0845 133.37 32.4108 133.059 32.8225C132.748 33.2241 132.592 33.7261 132.592 34.3285C132.592 35.2019 132.908 35.8696 133.541 36.3314C134.183 36.7832 134.996 37.0091 135.98 37.0091ZM152.147 41V17.868H158.367V21.904H158.608C159.03 20.4683 159.737 19.384 160.731 18.6511C161.725 17.9082 162.87 17.5367 164.165 17.5367C164.486 17.5367 164.833 17.5568 165.204 17.5969C165.576 17.6371 165.902 17.6923 166.183 17.7626V23.4552C165.882 23.3649 165.465 23.2845 164.933 23.2143C164.401 23.144 163.914 23.1088 163.472 23.1088C162.528 23.1088 161.685 23.3147 160.942 23.7263C160.209 24.1279 159.627 24.6901 159.195 25.413C158.774 26.1359 158.563 26.9692 158.563 27.9129V41H152.147ZM182.964 17.868V22.6872H169.033V17.868H182.964ZM172.196 12.3259H178.611V33.8917C178.611 34.4841 178.702 34.9459 178.882 35.2772C179.063 35.5985 179.314 35.8244 179.635 35.9549C179.967 36.0855 180.348 36.1507 180.78 36.1507C181.081 36.1507 181.382 36.1256 181.683 36.0754C181.985 36.0152 182.216 35.97 182.376 35.9399L183.385 40.7139C183.064 40.8143 182.612 40.9297 182.03 41.0602C181.447 41.2008 180.74 41.2861 179.906 41.3163C178.36 41.3765 177.005 41.1707 175.84 40.6988C174.686 40.2269 173.787 39.494 173.144 38.5001C172.502 37.5061 172.186 36.2511 172.196 34.7351V12.3259ZM192.579 41H185.591L196.239 10.1573H204.642L215.275 41H208.287L200.561 17.2054H200.32L192.579 41ZM192.143 28.8768H208.648V33.967H192.143V28.8768ZM220.53 41L214.235 17.868H220.726L224.31 33.4098H224.521L228.256 17.868H234.627L238.422 33.3195H238.617L242.141 17.868H248.617L242.337 41H235.545L231.569 26.4521H231.283L227.307 41H220.53ZM258.636 41.4367C257.16 41.4367 255.845 41.1807 254.69 40.6687C253.535 40.1466 252.622 39.3786 251.949 38.3645C251.287 37.3404 250.955 36.0654 250.955 34.5393C250.955 33.2542 251.191 32.1749 251.663 31.3014C252.135 30.4279 252.777 29.7252 253.591 29.193C254.404 28.6609 255.328 28.2593 256.362 27.9882C257.406 27.7172 258.5 27.5264 259.645 27.416C260.99 27.2754 262.074 27.1449 262.898 27.0244C263.721 26.8939 264.318 26.7031 264.69 26.4521C265.061 26.2011 265.247 25.8297 265.247 25.3377V25.2473C265.247 24.2936 264.946 23.5556 264.343 23.0335C263.751 22.5115 262.908 22.2504 261.813 22.2504C260.659 22.2504 259.74 22.5064 259.057 23.0185C258.375 23.5205 257.923 24.153 257.702 24.916L251.768 24.4341C252.07 23.0285 252.662 21.8137 253.546 20.7896C254.429 19.7555 255.569 18.9623 256.964 18.4101C258.37 17.8479 259.996 17.5668 261.844 17.5668C263.129 17.5668 264.359 17.7174 265.533 18.0186C266.718 18.3198 267.767 18.7866 268.681 19.4192C269.604 20.0517 270.332 20.8649 270.864 21.8589C271.397 22.8428 271.663 24.0225 271.663 25.3979V41H265.578V37.7922H265.398C265.026 38.5151 264.529 39.1527 263.907 39.7048C263.284 40.247 262.536 40.6737 261.663 40.9849C260.789 41.2861 259.78 41.4367 258.636 41.4367ZM260.473 37.0091C261.417 37.0091 262.25 36.8234 262.973 36.4519C263.696 36.0704 264.263 35.5584 264.675 34.9158C265.086 34.2732 265.292 33.5453 265.292 32.7321V30.2774C265.091 30.4079 264.815 30.5283 264.464 30.6388C264.123 30.7392 263.736 30.8346 263.304 30.9249C262.873 31.0052 262.441 31.0805 262.009 31.1508C261.577 31.2111 261.186 31.2663 260.835 31.3165C260.082 31.4269 259.424 31.6026 258.862 31.8436C258.299 32.0845 257.863 32.4108 257.551 32.8225C257.24 33.2241 257.085 33.7261 257.085 34.3285C257.085 35.2019 257.401 35.8696 258.033 36.3314C258.676 36.7832 259.489 37.0091 260.473 37.0091ZM276.64 41V17.868H282.86V21.904H283.101C283.522 20.4683 284.23 19.384 285.224 18.6511C286.218 17.9082 287.363 17.5367 288.658 17.5367C288.979 17.5367 289.325 17.5568 289.697 17.5969C290.068 17.6371 290.395 17.6923 290.676 17.7626V23.4552C290.374 23.3649 289.958 23.2845 289.426 23.2143C288.894 23.144 288.407 23.1088 287.965 23.1088C287.021 23.1088 286.178 23.3147 285.435 23.7263C284.702 24.1279 284.12 24.6901 283.688 25.413C283.266 26.1359 283.055 26.9692 283.055 27.9129V41H276.64ZM303.458 41.4518C301.078 41.4518 299.03 40.9699 297.313 40.006C295.607 39.0322 294.291 37.6567 293.368 35.8796C292.444 34.0925 291.982 31.9791 291.982 29.5394C291.982 27.16 292.444 25.0716 293.368 23.2745C294.291 21.4773 295.591 20.0768 297.268 19.0728C298.955 18.0688 300.933 17.5668 303.202 17.5668C304.728 17.5668 306.148 17.8128 307.464 18.3047C308.789 18.7866 309.944 19.5145 310.927 20.4884C311.921 21.4623 312.695 22.6872 313.247 24.163C313.799 25.6289 314.075 27.3457 314.075 29.3135V31.0755H294.542V27.0997H308.036C308.036 26.176 307.835 25.3578 307.434 24.6449C307.032 23.9321 306.475 23.3749 305.762 22.9733C305.059 22.5617 304.241 22.3558 303.307 22.3558C302.333 22.3558 301.47 22.5817 300.717 23.0335C299.974 23.4753 299.392 24.0727 298.97 24.8257C298.548 25.5686 298.332 26.3969 298.322 27.3105V31.0906C298.322 32.2351 298.533 33.2241 298.955 34.0574C299.387 34.8907 299.994 35.5333 300.777 35.9851C301.56 36.4368 302.489 36.6627 303.563 36.6627C304.276 36.6627 304.929 36.5623 305.521 36.3616C306.113 36.1608 306.62 35.8596 307.042 35.458C307.464 35.0564 307.785 34.5644 308.006 33.9821L313.939 34.3736C313.638 35.7993 313.021 37.0443 312.087 38.1085C311.163 39.1627 309.969 39.986 308.503 40.5783C307.047 41.1606 305.365 41.4518 303.458 41.4518Z" fill="black"/>
</svg>
